<svg xmlns="http://www.w3.org/2000/svg" width="102" height="102" viewBox="0 0 102 102" fill="none">
<path d="M0 99.875V13.625C0 6.59375 5.85938 0.5 13.125 0.5H99.375C100.312 0.5 101.25 1.4375 101.25 2.375C101.25 3.54688 100.312 4.25 99.375 4.25H13.125C7.73438 4.25 3.75 8.46875 3.75 13.625V99.875C3.75 101.047 2.8125 101.75 1.875 101.75C0.703125 101.75 0 101.047 0 99.875ZM30 94.25C31.875 94.25 33.75 96.125 33.75 98C33.75 100.109 31.875 101.75 30 101.75C27.8906 101.75 26.25 100.109 26.25 98C26.25 96.125 27.8906 94.25 30 94.25ZM75 94.25C76.875 94.25 78.75 96.125 78.75 98C78.75 100.109 76.875 101.75 75 101.75C72.8906 101.75 71.25 100.109 71.25 98C71.25 96.125 72.8906 94.25 75 94.25ZM52.5 101.75C50.3906 101.75 48.75 100.109 48.75 98C48.75 96.125 50.3906 94.25 52.5 94.25C54.375 94.25 56.25 96.125 56.25 98C56.25 100.109 54.375 101.75 52.5 101.75ZM97.5 94.25C99.375 94.25 101.25 96.125 101.25 98C101.25 100.109 99.375 101.75 97.5 101.75C95.3906 101.75 93.75 100.109 93.75 98C93.75 96.125 95.3906 94.25 97.5 94.25ZM97.5 56.75C95.3906 56.75 93.75 55.1094 93.75 53C93.75 51.125 95.3906 49.25 97.5 49.25C99.375 49.25 101.25 51.125 101.25 53C101.25 55.1094 99.375 56.75 97.5 56.75ZM97.5 71.75C99.375 71.75 101.25 73.625 101.25 75.5C101.25 77.6094 99.375 79.25 97.5 79.25C95.3906 79.25 93.75 77.6094 93.75 75.5C93.75 73.625 95.3906 71.75 97.5 71.75ZM97.5 34.25C95.3906 34.25 93.75 32.6094 93.75 30.5C93.75 28.625 95.3906 26.75 97.5 26.75C99.375 26.75 101.25 28.625 101.25 30.5C101.25 32.6094 99.375 34.25 97.5 34.25Z" fill="white"/>
</svg>