<svg xmlns="http://www.w3.org/2000/svg" width="106" height="120" viewBox="0 0 106 120" fill="none">
<path d="M30.9998 12.1875H30.7654V81.5625C30.7654 82.2656 30.2967 82.9688 29.5936 83.2031C28.8904 83.6719 27.9529 83.2031 27.4842 82.7344L18.1092 70.5469C15.5311 67.2656 10.8436 66.5625 7.5623 69.1406C4.28105 71.7188 3.57793 76.4062 6.15605 79.6875L25.8436 104.766C31.4686 112.031 40.1404 116.25 49.5154 116.25H60.9998H64.7498H81.6248C92.8748 116.25 102.25 107.109 102.25 95.625V75V68.4375C102.25 62.8125 97.5623 58.125 91.9373 58.125C90.2967 58.125 88.8904 58.5938 87.4842 59.2969C87.0154 59.5312 86.3123 59.5312 85.8436 59.2969C85.3748 59.0625 84.9061 58.5938 84.9061 58.125C83.4998 53.9062 79.7498 50.625 75.0623 50.625C72.7186 50.625 70.6092 51.5625 68.7342 52.7344C68.2654 53.2031 67.7967 53.2031 67.0936 52.9688C66.6248 52.9688 66.1561 52.5 65.9217 51.7969C64.5154 48.0469 60.7654 45 56.3123 45C54.2029 45 52.3279 45.7031 50.6873 46.6406C49.9842 47.1094 49.2811 47.1094 48.8123 46.875C48.1092 46.4062 47.8748 45.9375 47.8748 45.2344V12.1875C47.8748 7.73438 43.8904 3.75 39.4373 3.75C34.7498 3.75 30.9998 7.73438 30.9998 12.1875ZM39.4373 0C45.9998 0 51.6248 5.625 51.6248 12.1875V42.1875C53.0311 41.7188 54.6717 41.25 56.3123 41.25C61.4686 41.25 66.1561 44.2969 68.4998 48.5156C70.3748 47.5781 72.7186 46.875 75.0623 46.875C80.6873 46.875 85.3748 50.3906 87.7186 55.0781C89.1248 54.6094 90.2967 54.375 91.9373 54.375C99.6717 54.375 106 60.7031 106 68.4375V75V95.625C106 109.219 94.9842 120 81.6248 120H64.7498H60.9998H49.5154C38.9686 120 29.1248 115.312 22.7967 107.109L3.34355 82.0312C-0.640824 77.1094 0.296676 70.0781 5.21855 66.3281C10.1404 62.3438 17.1717 63.2812 20.9217 68.2031L27.2498 76.1719V12.1875C27.2498 5.625 32.6404 0 39.4373 0ZM53.4998 73.125V99.375C53.4998 100.547 52.5623 101.25 51.6248 101.25C50.4529 101.25 49.7498 100.547 49.7498 99.375V73.125C49.7498 72.1875 50.4529 71.25 51.6248 71.25C52.5623 71.25 53.4998 72.1875 53.4998 73.125ZM68.4998 73.125V99.375C68.4998 100.547 67.5623 101.25 66.6248 101.25C65.4529 101.25 64.7498 100.547 64.7498 99.375V73.125C64.7498 72.1875 65.4529 71.25 66.6248 71.25C67.5623 71.25 68.4998 72.1875 68.4998 73.125ZM83.4998 73.125V99.375C83.4998 100.547 82.5623 101.25 81.6248 101.25C80.4529 101.25 79.7498 100.547 79.7498 99.375V73.125C79.7498 72.1875 80.4529 71.25 81.6248 71.25C82.5623 71.25 83.4998 72.1875 83.4998 73.125Z" fill="white"/>
</svg>