<svg xmlns="http://www.w3.org/2000/svg" width="135" height="120" viewBox="0 0 135 120" fill="none">
<path d="M7.96875 0.703125C8.67188 0 9.84375 0 10.5469 0.703125L35.3906 25.3125L54.375 6.32812C59.5312 1.17188 67.7344 1.17188 72.8906 6.32812L113.672 47.1094C118.828 52.2656 118.828 60.4688 113.672 65.625L66.3281 112.969C57.6562 121.641 43.3594 121.641 34.6875 112.969L7.03125 85.3125C-1.64062 76.6406 -1.64062 62.3438 7.03125 53.6719L32.5781 27.8906L7.96875 3.28125C7.26562 2.57812 7.26562 1.40625 7.96875 0.703125ZM56.7188 52.0312L35.3906 30.7031L9.60938 56.25C6.5625 59.2969 4.6875 63.5156 4.21875 67.5H106.406L111.094 63.0469C114.609 59.2969 114.609 53.4375 111.094 49.6875L70.3125 8.90625C66.5625 5.39062 60.7031 5.39062 56.9531 8.90625L37.9688 27.8906L59.2969 49.4531C60 50.1562 60 51.3281 59.2969 52.0312C58.5938 52.7344 57.4219 52.7344 56.7188 52.0312ZM4.21875 71.25C4.6875 75.4688 6.5625 79.4531 9.60938 82.7344L37.2656 110.391C44.5312 117.656 56.4844 117.656 63.75 110.391L102.656 71.25H4.21875ZM131.25 105C131.25 104.297 130.781 102.891 130.078 100.781C129.375 98.9062 128.438 96.7969 127.266 94.4531C124.922 90 122.109 85.3125 119.766 81.7969C117.656 85.3125 114.844 90 112.5 94.4531C111.328 96.7969 110.391 98.9062 109.688 100.781C108.984 102.891 108.516 104.297 108.516 105C108.516 111.328 113.672 116.25 119.766 116.25C126.094 116.25 131.016 111.328 131.016 105H131.25ZM135 105C135 113.438 128.203 120 120 120C111.562 120 105 113.438 105 105C105 99.1406 112.5 86.4844 116.953 79.6875C118.359 77.3438 121.406 77.3438 122.812 79.6875C127.266 86.4844 135 99.1406 135 105Z" fill="white"/>
</svg>