<svg xmlns="http://www.w3.org/2000/svg" width="121" height="106" viewBox="0 0 121 106" fill="none">
<path d="M19.25 11.75C19.25 7.76562 15.7344 4.25 11.75 4.25C7.53125 4.25 4.25 7.76562 4.25 11.75C4.25 15.9688 7.53125 19.25 11.75 19.25C15.7344 19.25 19.25 15.9688 19.25 11.75ZM9.875 23C4.48438 22.0625 0.5 17.375 0.5 11.75C0.5 5.65625 5.42188 0.5 11.75 0.5C17.1406 0.5 21.8281 4.71875 22.7656 9.875H98C98.9375 4.71875 103.625 0.5 109.25 0.5C115.344 0.5 120.5 5.65625 120.5 11.75C120.5 17.375 116.281 22.0625 111.125 23V83.2344C116.281 84.1719 120.5 88.8594 120.5 94.25C120.5 100.578 115.344 105.5 109.25 105.5C103.625 105.5 98.9375 101.516 98 96.125H22.7656C21.8281 101.516 17.1406 105.5 11.75 105.5C5.42188 105.5 0.5 100.578 0.5 94.25C0.5 88.8594 4.48438 84.1719 9.875 83.2344V23ZM13.625 83.2344C18.3125 84.1719 22.0625 87.6875 22.7656 92.375H98C98.9375 87.6875 102.453 83.9375 107.375 83.2344V23C102.453 22.0625 98.9375 18.5469 98 13.625H22.7656C21.8281 18.5469 18.3125 22.0625 13.625 23V83.2344ZM11.75 86.75C7.53125 86.75 4.25 90.2656 4.25 94.25C4.25 98.4688 7.53125 101.75 11.75 101.75C15.7344 101.75 19.25 98.4688 19.25 94.25C19.25 90.2656 15.7344 86.75 11.75 86.75ZM101.75 94.25C101.75 98.4688 105.031 101.75 109.25 101.75C113.234 101.75 116.75 98.4688 116.75 94.25C116.75 90.2656 113.234 86.75 109.25 86.75C105.031 86.75 101.75 90.2656 101.75 94.25ZM116.75 11.75C116.75 7.76562 113.234 4.25 109.25 4.25C105.031 4.25 101.75 7.76562 101.75 11.75C101.75 15.9688 105.031 19.25 109.25 19.25C113.234 19.25 116.75 15.9688 116.75 11.75ZM24.875 34.25C24.875 29.0938 28.8594 24.875 34.25 24.875H56.75C61.9062 24.875 66.125 29.0938 66.125 34.25V49.25C66.125 54.6406 61.9062 58.625 56.75 58.625H34.25C28.8594 58.625 24.875 54.6406 24.875 49.25V34.25ZM34.25 28.625C30.9688 28.625 28.625 31.2031 28.625 34.25V49.25C28.625 52.5312 30.9688 54.875 34.25 54.875H56.75C59.7969 54.875 62.375 52.5312 62.375 49.25V34.25C62.375 31.2031 59.7969 28.625 56.75 28.625H34.25ZM77.375 47.375H86.75C91.9062 47.375 96.125 51.5938 96.125 56.75V71.75C96.125 77.1406 91.9062 81.125 86.75 81.125H64.25C58.8594 81.125 54.875 77.1406 54.875 71.75V69.875C54.875 68.9375 55.5781 68 56.75 68C57.6875 68 58.625 68.9375 58.625 69.875V71.75C58.625 75.0312 60.9688 77.375 64.25 77.375H86.75C89.7969 77.375 92.375 75.0312 92.375 71.75V56.75C92.375 53.7031 89.7969 51.125 86.75 51.125H77.375C76.2031 51.125 75.5 50.4219 75.5 49.25C75.5 48.3125 76.2031 47.375 77.375 47.375Z" fill="white"/>
</svg>