<svg xmlns="http://www.w3.org/2000/svg" width="151" height="106" viewBox="0 0 151 106" fill="none">
<path d="M43.8908 1.90625L83.2658 103.156C83.7345 104.094 83.2658 105.031 82.0939 105.5C81.1564 105.969 80.2189 105.266 79.7502 104.328L68.5002 75.5H16.0002C15.7658 75.5 15.7658 75.5 15.7658 75.5L4.51578 104.328C4.28141 105.5 3.10953 105.969 2.17203 105.5C1.23453 105.031 0.765781 104.094 1.00016 103.156L40.3752 1.90625C40.6095 0.96875 41.3127 0.5 42.2502 0.5C42.9533 0.5 43.6564 0.96875 43.8908 1.90625ZM67.0939 71.75L42.2502 7.76562L17.172 71.75H67.0939ZM149.125 30.5C150.063 30.5 151 31.4375 151 32.375V57.6875V78.3125V103.625C151 104.797 150.063 105.5 149.125 105.5C147.953 105.5 147.25 104.797 147.25 103.625V92.1406C142.328 100.109 133.656 105.5 123.813 105.5C108.578 105.5 96.6252 93.5469 96.6252 78.3125V57.6875C96.6252 42.6875 108.578 30.5 123.813 30.5C133.656 30.5 142.328 35.8906 147.25 44.0938V32.375C147.25 31.4375 147.953 30.5 149.125 30.5ZM147.25 57.6875C147.25 44.7969 136.703 34.25 123.813 34.25C110.688 34.25 100.375 44.7969 100.375 57.6875V78.3125C100.375 91.4375 110.688 101.75 123.813 101.75C136.703 101.75 147.25 91.4375 147.25 78.3125V57.6875Z" fill="white"/>
</svg>