<svg xmlns="http://www.w3.org/2000/svg" width="120" height="106" viewBox="0 0 120 106" fill="none">
<path d="M3.75 15.5V30.5H116.25V15.5C116.25 9.40625 111.094 4.25 105 4.25H15C8.67188 4.25 3.75 9.40625 3.75 15.5ZM3.75 90.5C3.75 96.8281 8.67188 101.75 15 101.75H58.125V34.25H3.75V90.5ZM61.875 101.75H105C111.094 101.75 116.25 96.8281 116.25 90.5V34.25H61.875V101.75ZM0 90.5V15.5C0 7.29688 6.5625 0.5 15 0.5H105C113.203 0.5 120 7.29688 120 15.5V90.5C120 98.9375 113.203 105.5 105 105.5H15C6.5625 105.5 0 98.9375 0 90.5Z" fill="white"/>
</svg>