<svg xmlns="http://www.w3.org/2000/svg" width="119" height="119" viewBox="0 0 119 119" fill="none">
<path d="M88.8281 6.5L71.9531 23.375L95.625 47.0469L112.5 30.1719C116.25 26.4219 116.25 20.5625 112.5 16.8125L102.188 6.5C98.4375 2.75 92.5781 2.75 88.8281 6.5ZM68.2031 21.7344L86.25 3.92188C91.4063 -1.23438 99.6094 -1.23438 104.766 3.92188L115.078 14.2344C120.234 19.3906 120.234 27.5938 115.078 32.75L97.2656 50.7969L86.4844 85.9531C84.8438 91.1094 80.8594 95.3281 75.4688 96.9688L8.67189 118.297C6.32814 119 3.98439 118.297 2.34376 116.656C0.703137 115.016 1.18017e-05 112.672 0.703137 110.328L22.0313 43.5312C23.6719 38.375 27.8906 34.1562 33.0469 32.5156L68.2031 21.7344ZM68.6719 25.4844L34.2188 36.0312C30 37.4375 26.9531 40.4844 25.5469 44.7031L4.45314 111.5C4.21876 111.734 4.21876 111.969 4.21876 112.203L38.2031 78.2188C36.5625 76.1094 35.625 73.2969 35.625 70.25C35.625 63.2188 41.4844 57.125 48.75 57.125C55.7813 57.125 61.875 63.2188 61.875 70.25C61.875 77.5156 55.7813 83.375 48.75 83.375C45.7031 83.375 42.8906 82.4375 40.7813 80.7969L6.79689 114.781C7.03126 114.781 7.26564 114.781 7.50001 114.547L74.2969 93.4531C78.5156 92.0469 81.5625 89 82.9688 84.7812L93.5156 50.3281L68.6719 25.7188V25.4844ZM48.75 60.875C45.2344 60.875 42.1875 62.75 40.5469 65.5625C38.9063 68.6094 38.9063 72.125 40.5469 74.9375C42.1875 77.9844 45.2344 79.625 48.75 79.625C52.0313 79.625 55.0781 77.9844 56.7188 74.9375C58.3594 72.125 58.3594 68.6094 56.7188 65.5625C55.0781 62.75 52.0313 60.875 48.75 60.875Z" fill="white"/>
</svg>