<svg xmlns="http://www.w3.org/2000/svg" width="120" height="106" viewBox="0 0 120 106" fill="none">
<path d="M15 4.25C8.67188 4.25 3.75 9.40625 3.75 15.5V76.6719L24.6094 55.8125C27.4219 52.7656 32.3438 52.7656 35.1562 55.8125L52.5 72.9219L84.6094 40.8125C87.4219 37.7656 92.3438 37.7656 95.1562 40.8125L116.25 61.6719V15.5C116.25 9.40625 111.094 4.25 105 4.25H15ZM3.75 82.0625V90.5C3.75 96.8281 8.67188 101.75 15 101.75H23.4375L49.6875 75.5L32.5781 58.3906C31.1719 56.9844 28.5938 56.9844 27.1875 58.3906L3.75 82.0625ZM92.5781 43.3906C91.1719 41.9844 88.5938 41.9844 87.1875 43.3906L28.8281 101.75H105C111.094 101.75 116.25 96.8281 116.25 90.5V67.0625L92.5781 43.3906ZM0 15.5C0 7.29688 6.5625 0.5 15 0.5H105C113.203 0.5 120 7.29688 120 15.5V90.5C120 98.9375 113.203 105.5 105 105.5H15C6.5625 105.5 0 98.9375 0 90.5V15.5ZM39.375 30.5C39.375 27.2188 37.5 24.1719 34.6875 22.5312C31.6406 20.8906 28.125 20.8906 25.3125 22.5312C22.2656 24.1719 20.625 27.2188 20.625 30.5C20.625 34.0156 22.2656 37.0625 25.3125 38.7031C28.125 40.3438 31.6406 40.3438 34.6875 38.7031C37.5 37.0625 39.375 34.0156 39.375 30.5ZM16.875 30.5C16.875 25.8125 19.2188 21.5938 23.4375 19.25C27.4219 16.9062 32.3438 16.9062 36.5625 19.25C40.5469 21.5938 43.125 25.8125 43.125 30.5C43.125 35.4219 40.5469 39.6406 36.5625 41.9844C32.3438 44.3281 27.4219 44.3281 23.4375 41.9844C19.2188 39.6406 16.875 35.4219 16.875 30.5Z" fill="white"/>
</svg>