<svg xmlns="http://www.w3.org/2000/svg" width="120" height="106" viewBox="0 0 120 106" fill="none">
<path d="M41.25 4.25H11.25C7.03125 4.25 3.75 7.76562 3.75 11.75V38C3.75 42.2188 7.03125 45.5 11.25 45.5H41.25C45.2344 45.5 48.75 42.2188 48.75 38V11.75C48.75 7.76562 45.2344 4.25 41.25 4.25ZM11.25 0.5H41.25C47.3438 0.5 52.5 5.65625 52.5 11.75V38C52.5 44.3281 47.3438 49.25 41.25 49.25H11.25C4.92188 49.25 0 44.3281 0 38V11.75C0 5.65625 4.92188 0.5 11.25 0.5ZM41.25 60.5H11.25C7.03125 60.5 3.75 64.0156 3.75 68V94.25C3.75 98.4688 7.03125 101.75 11.25 101.75H41.25C45.2344 101.75 48.75 98.4688 48.75 94.25V68C48.75 64.0156 45.2344 60.5 41.25 60.5ZM11.25 56.75H41.25C47.3438 56.75 52.5 61.9062 52.5 68V94.25C52.5 100.578 47.3438 105.5 41.25 105.5H11.25C4.92188 105.5 0 100.578 0 94.25V68C0 61.9062 4.92188 56.75 11.25 56.75ZM71.25 4.25C67.0312 4.25 63.75 7.76562 63.75 11.75V19.25C63.75 23.4688 67.0312 26.75 71.25 26.75H108.75C112.734 26.75 116.25 23.4688 116.25 19.25V11.75C116.25 7.76562 112.734 4.25 108.75 4.25H71.25ZM60 11.75C60 5.65625 64.9219 0.5 71.25 0.5H108.75C114.844 0.5 120 5.65625 120 11.75V19.25C120 25.5781 114.844 30.5 108.75 30.5H71.25C64.9219 30.5 60 25.5781 60 19.25V11.75ZM108.75 41.75H71.25C67.0312 41.75 63.75 45.2656 63.75 49.25V56.75C63.75 60.9688 67.0312 64.25 71.25 64.25H108.75C112.734 64.25 116.25 60.9688 116.25 56.75V49.25C116.25 45.2656 112.734 41.75 108.75 41.75ZM71.25 38H108.75C114.844 38 120 43.1562 120 49.25V56.75C120 63.0781 114.844 68 108.75 68H71.25C64.9219 68 60 63.0781 60 56.75V49.25C60 43.1562 64.9219 38 71.25 38ZM71.25 79.25C67.0312 79.25 63.75 82.7656 63.75 86.75V94.25C63.75 98.4688 67.0312 101.75 71.25 101.75H108.75C112.734 101.75 116.25 98.4688 116.25 94.25V86.75C116.25 82.7656 112.734 79.25 108.75 79.25H71.25ZM60 86.75C60 80.6562 64.9219 75.5 71.25 75.5H108.75C114.844 75.5 120 80.6562 120 86.75V94.25C120 100.578 114.844 105.5 108.75 105.5H71.25C64.9219 105.5 60 100.578 60 94.25V86.75Z" fill="white"/>
</svg>