<svg xmlns="http://www.w3.org/2000/svg" width="120" height="120" viewBox="0 0 120 120" fill="none">
<path d="M61.875 4.6875C60.4688 4.21875 59.2969 4.21875 57.8906 4.6875L7.5 22.5C6.32812 22.9688 5.39062 23.6719 4.6875 24.8438L60 46.875L115.078 24.8438C114.609 23.6719 113.438 22.9688 112.5 22.5L61.875 4.6875ZM3.75 92.3438C3.75 94.6875 5.15625 96.7969 7.5 97.5L58.125 115.547V50.1562L3.75 28.3594V92.3438ZM61.875 115.547L112.5 97.5C114.609 96.7969 116.25 94.6875 116.25 92.3438V28.3594L61.875 50.1562V115.547ZM56.7188 1.17188C58.8281 0.46875 60.9375 0.46875 63.0469 1.17188L113.672 18.9844C117.422 20.3906 120 23.9062 120 27.8906V92.3438C120 96.3281 117.422 99.8438 113.672 101.25L63.0469 119.062C60.9375 119.766 58.8281 119.766 56.7188 119.062L6.09375 101.25C2.34375 99.8438 0 96.3281 0 92.3438V27.8906C0 23.9062 2.34375 20.3906 6.09375 18.9844L56.7188 1.17188Z" fill="white"/>
</svg>