<svg xmlns="http://www.w3.org/2000/svg" width="120" height="106" viewBox="0 0 120 106" fill="none">
<path d="M120 103.625C120 104.797 119.062 105.5 118.125 105.5H1.875C0.703125 105.5 0 104.797 0 103.625C0 102.688 0.703125 101.75 1.875 101.75H118.125C119.062 101.75 120 102.688 120 103.625ZM33.75 79.25H86.25C90.2344 79.25 93.75 75.9688 93.75 71.75V34.25C93.75 30.2656 90.2344 26.75 86.25 26.75H33.75C29.5312 26.75 26.25 30.2656 26.25 34.25V71.75C26.25 75.9688 29.5312 79.25 33.75 79.25ZM86.25 83H33.75C27.4219 83 22.5 78.0781 22.5 71.75V34.25C22.5 28.1562 27.4219 23 33.75 23H86.25C92.3438 23 97.5 28.1562 97.5 34.25V71.75C97.5 78.0781 92.3438 83 86.25 83ZM118.125 4.25H1.875C0.703125 4.25 0 3.54688 0 2.375C0 1.4375 0.703125 0.5 1.875 0.5H118.125C119.062 0.5 120 1.4375 120 2.375C120 3.54688 119.062 4.25 118.125 4.25Z" fill="white"/>
</svg>