<svg xmlns="http://www.w3.org/2000/svg" width="105" height="120" viewBox="0 0 105 120" fill="none">
<path d="M45 93.75H90C96.0938 93.75 101.25 88.8281 101.25 82.5V29.0625C101.25 28.125 101.016 27.1875 100.547 26.25H84.375C81.0938 26.25 78.75 23.9062 78.75 20.625V4.45312C77.8125 3.98438 76.875 3.75 75.9375 3.75H45C38.6719 3.75 33.75 8.90625 33.75 15V82.5C33.75 88.8281 38.6719 93.75 45 93.75ZM101.484 21.0938C101.953 21.5625 102.422 22.0312 102.891 22.5V22.9688C104.297 24.8438 104.766 26.9531 104.766 29.0625V82.5C104.766 90.9375 98.2031 97.5 89.7656 97.5H45C36.5625 97.5 30 90.9375 30 82.5V15C30 6.79688 36.5625 0 45 0H75.9375C78.75 0 81.7969 1.40625 83.9062 3.51562L101.484 21.0938ZM84.375 22.5H97.7344L82.5 7.26562V20.625C82.5 21.7969 83.2031 22.5 84.375 22.5ZM15 22.5H22.5V26.25H15C8.67188 26.25 3.75 31.4062 3.75 37.5V105C3.75 111.328 8.67188 116.25 15 116.25H60C66.0938 116.25 71.25 111.328 71.25 105H75C75 113.438 68.2031 120 60 120H15C6.5625 120 0 113.438 0 105V37.5C0 29.2969 6.5625 22.5 15 22.5Z" fill="white"/>
</svg>