<svg xmlns="http://www.w3.org/2000/svg" width="150" height="106" viewBox="0 0 150 106" fill="none">
<path d="M1.875 0.5C2.8125 0.5 3.75 1.4375 3.75 2.375V11.75H146.25V2.375C146.25 1.4375 146.953 0.5 148.125 0.5C149.062 0.5 150 1.4375 150 2.375V11.75V15.5V60.5V64.25V103.625C150 104.797 149.062 105.5 148.125 105.5C146.953 105.5 146.25 104.797 146.25 103.625V64.25H3.75V103.625C3.75 104.797 2.8125 105.5 1.875 105.5C0.703125 105.5 0 104.797 0 103.625V64.25V60.5V15.5V11.75V2.375C0 1.4375 0.703125 0.5 1.875 0.5ZM146.25 60.5V15.5H144.375L144.141 16.4375L121.875 60.5H146.25ZM3.75 60.5H5.39062L5.625 59.7969L27.8906 15.5H3.75V60.5ZM140.391 15.5H106.875L106.641 16.4375L84.375 60.5H117.891L118.125 59.7969L140.391 15.5ZM31.875 15.5L31.6406 16.4375L9.375 60.5H42.8906L43.125 59.7969L65.3906 15.5H31.875ZM69.1406 16.4375L46.875 60.5H80.3906L80.625 59.7969L102.891 15.5H69.375L69.1406 16.4375Z" fill="white"/>
</svg>