<svg xmlns="http://www.w3.org/2000/svg" width="135" height="120" viewBox="0 0 135 120" fill="none">
<path d="M65.3906 4.04297L39.375 13.1836L67.5 23.9648L95.3906 13.1836L69.375 4.04297C67.9688 3.57422 66.7969 3.57422 65.3906 4.04297ZM33.75 51.1523V15.293C33.75 12.9492 35.1562 10.8398 37.2656 10.1367L64.2188 0.527344C66.3281 -0.175781 68.4375 -0.175781 70.5469 0.527344L97.5 10.1367C99.6094 10.8398 101.25 12.9492 101.25 15.293V51.1523L131.016 61.2305C133.359 61.9336 135 64.043 135 66.6211V101.777C135 104.824 133.125 107.637 130.078 108.809L103.828 119.121C102.188 119.59 100.312 119.824 98.4375 119.121L67.5 107.637L36.3281 119.121C34.4531 119.824 32.5781 119.824 30.9375 119.121L4.6875 108.809C1.875 107.637 0 104.824 0 101.777V66.6211C0 64.043 1.40625 61.9336 3.75 61.2305L33.75 51.1523ZM37.5 51.1523L65.625 62.8711V27.2461L37.5 16.4648V51.1523ZM69.375 68.2617V104.355L99.375 115.371V79.9805L69.375 68.2617ZM35.3906 54.4336L5.625 64.5117L33.75 76.6992L62.1094 65.6836L35.3906 54.4336ZM3.75 101.777C3.75 103.418 4.6875 104.59 6.09375 105.293L31.875 115.371V79.9805L3.75 67.793V101.777ZM35.625 115.371L65.625 104.355V68.2617L35.625 79.9805V115.371ZM69.375 27.2461V62.8711L97.5 51.1523V16.4648L69.375 27.2461ZM72.6562 65.6836L101.016 76.6992L129.141 64.5117L99.375 54.4336L72.6562 65.6836ZM128.672 105.293C130.312 104.59 131.25 103.418 131.25 101.777V67.793L103.125 79.9805V115.371L128.672 105.293Z" fill="white"/>
</svg>