<svg xmlns="http://www.w3.org/2000/svg" width="16" height="13" viewBox="0 0 16 13" fill="none">
<path d="M1.5 0.75V6C1.5 6.6875 2.03125 7.25 2.75 7.25H13.4375L10.7188 4.53125C10.4062 4.25 10.4062 3.78125 10.7188 3.46875C11 3.1875 11.4688 3.1875 11.7812 3.46875L15.7812 7.5C16.0625 7.78125 16.0625 8.25 15.7812 8.53125L11.7812 12.5312C11.4688 12.8438 11 12.8438 10.7188 12.5312C10.4062 12.25 10.4062 11.7812 10.7188 11.4688L13.4375 8.75H2.75C1.21875 8.75 0 7.53125 0 6V0.75C0 0.34375 0.3125 0 0.75 0C1.15625 0 1.5 0.34375 1.5 0.75Z" fill="black"/>
</svg>