<svg xmlns="http://www.w3.org/2000/svg" width="12" height="14" viewBox="0 0 12 14" fill="none">
<path d="M11.25 14H0.75C0.3125 14 0 13.6875 0 13.25C0 12.8438 0.3125 12.5 0.75 12.5H11.25C11.6562 12.5 12 12.8438 12 13.25C12 13.6875 11.6562 14 11.25 14ZM5.4375 9.78125L1.4375 5.53125C1.15625 5.21875 1.1875 4.75 1.46875 4.46875C1.78125 4.1875 2.25 4.1875 2.53125 4.5L5.25 7.375V4.75V0.75C5.25 0.34375 5.5625 0 6 0C6.40625 0 6.75 0.34375 6.75 0.75V4.75V7.375L9.4375 4.5C9.71875 4.1875 10.1875 4.1875 10.5 4.46875C10.8125 4.75 10.8125 5.21875 10.5312 5.53125L6.53125 9.78125C6.375 9.9375 6.1875 10 6 10C5.78125 10 5.59375 9.9375 5.4375 9.78125Z" fill="black"/>
</svg>